<?xml version="1.0" encoding="UTF-8"?>
<svg version="1.1" xmlns="http://www.w3.org/2000/svg" width="634" height="634">
<path d="M0 0 C209.22 0 418.44 0 634 0 C634 209.22 634 418.44 634 634 C424.78 634 215.56 634 0 634 C0 424.78 0 215.56 0 0 Z " fill="#12B57A" transform="translate(0,0)"/>
<path d="M0 0 C3.78556979 1.70155508 5.12442627 3.24885253 7 7 C7.33 8.32 7.66 9.64 8 11 C9.32 8.36 10.64 5.72 12 3 C16 5 16 5 17.31640625 7.69921875 C18.09731185 11.46987724 17.64357472 14.04535883 16.9375 17.8125 C16.43670654 21.47970987 16.43670654 21.47970987 17 25 C19.52306896 28.03195914 22.07613689 29.9694422 25.36328125 32.1328125 C28.11946396 34.08459818 28.84184414 34.92307744 30 38 C29.98876953 40.28369141 29.98876953 40.28369141 29.7578125 42.7265625 C29.64414107 48.80909854 32.03546639 51.87966361 35.875 56.375 C36.46708252 57.10759033 37.05916504 57.84018066 37.66918945 58.5949707 C39.42163942 60.75181403 41.20415881 62.87923135 43 65 C43.91315455 66.08951354 44.8259552 67.17932386 45.73828125 68.26953125 C46.54652344 69.23246094 47.35476563 70.19539063 48.1875 71.1875 C51.77168395 75.46615638 55.2707811 79.78943131 58.625 84.25 C59.28278442 85.08180786 59.28278442 85.08180786 59.95385742 85.93041992 C63.33210896 90.52993972 63.59637072 93.51004526 63 99 C62.01171875 101.42578125 62.01171875 101.42578125 60.6875 103.3125 C60.25824219 103.94800781 59.82898438 104.58351563 59.38671875 105.23828125 C55.96426612 109.58624219 52.94445454 111.63140744 47.31640625 112.3359375 C41.30748272 112.42117046 37.6927543 112.13409307 33 108 C32.360625 107.24589844 31.72125 106.49179688 31.0625 105.71484375 C27.0063128 101.63529315 21.52892685 99.61646889 16.375 97.25 C15.32570313 96.75628906 14.27640625 96.26257813 13.1953125 95.75390625 C7.68660352 93.15741927 7.68660352 93.15741927 2 91 C-0.05930771 100.17480182 -0.11715122 108.88893344 5 117 C11.71403812 126.48194241 21.91945199 133.44063778 31.01953125 140.46875 C33.75340413 142.58251364 36.42685557 144.69076782 39 147 C39 147.66 39 148.32 39 149 C39.66 149 40.32 149 41 149 C45.40431039 154.02863274 48.50227042 159.80094186 51.234375 165.86328125 C51.75741211 167.01739502 52.28044922 168.17150879 52.81933594 169.3605957 C53.20895508 170.23159912 53.59857422 171.10260254 54 172 C55.16047852 171.60095459 56.32095703 171.20190918 57.51660156 170.79077148 C61.82177111 169.31349137 66.13155431 167.85010156 70.44287109 166.39086914 C72.30841853 165.75728393 74.17269223 165.11993537 76.03564453 164.47875977 C78.71321108 163.55794506 81.39506219 162.65074848 84.078125 161.74609375 C84.91055725 161.45657333 85.7429895 161.16705292 86.60064697 160.86875916 C87.38115417 160.60841385 88.16166138 160.34806854 88.96582031 160.07983398 C89.64976868 159.84666977 90.33371704 159.61350555 91.03839111 159.37327576 C93.37262693 158.92909259 94.7729948 159.207119 97 160 C99.15625 161.64453125 99.15625 161.64453125 101.5 163.8125 C102.37398438 164.62074219 103.24796875 165.42898437 104.1484375 166.26171875 C107.71303869 169.6847125 111.19986037 173.17924795 114.67553711 176.69213867 C117.98632916 180.0263926 121.3766524 183.18993965 124.953125 186.234375 C127.45714849 188.3943342 129.87997698 190.63487993 132.3125 192.875 C136.73740578 196.90590732 141.26139652 200.76061091 145.921875 204.515625 C148.23855674 206.38543412 150.53772599 208.27036901 152.828125 210.171875 C158.84243195 215.14328857 164.75698272 219.97702778 171.375 224.125 C179.69739454 229.48403168 185.58913103 236.17826206 190 245 C177.79 245 165.58 245 153 245 C152.67 241.37 152.34 237.74 152 234 C150.576875 233.79375 149.15375 233.5875 147.6875 233.375 C140.12500897 231.16525085 136.5154807 224.74136811 132.15429688 218.61767578 C125.38926043 209.13689501 116.32807639 202.34442314 106.625 196.0625 C106.04234375 195.68496582 105.4596875 195.30743164 104.859375 194.91845703 C99.1350267 191.14773606 99.1350267 191.14773606 92.56640625 190.1328125 C78.71901075 194.81184112 66.99962683 208.94367345 57 219 C57.90951416 219.01458252 58.81902832 219.02916504 59.75610352 219.04418945 C104.52883975 219.84294658 104.52883975 219.84294658 117 224 C116.42809075 235.59715021 115.45378692 247.09126601 114.125 258.625 C113.9460015 260.20441294 113.76712939 261.78384022 113.58837891 263.36328125 C112.27814946 274.87043669 110.9026696 286.3681964 109.29394531 297.83789062 C109.042757 299.6855017 108.82637866 301.53778898 108.6171875 303.390625 C106.72935828 318.09159298 102.31250714 330.49908917 90.5949707 339.90405273 C88.75416471 341.30890988 86.88968485 342.66154787 85 344 C82.69 345.65 80.38 347.3 78 349 C78 336.79 78 324.58 78 312 C81.63 312 85.26 312 89 312 C88.2265625 309.710625 88.2265625 309.710625 87.4375 307.375 C85.201298 300.75584209 86.92142145 295.97653374 89.3125 289.625 C94.50768938 274.89834455 96.45229959 258.55469162 97 243 C78.60988022 244.55848473 62.34348046 257.17613348 48.46264648 268.4387207 C39.02293902 276.07643203 31.8526894 280.13270869 19.5 280.25 C11.52552496 280.36254455 7.70304285 281.75953722 1.8515625 287.45703125 C-3.90799827 292.59329709 -11.07832011 295.69702293 -18 299 C-19.73830078 299.8353125 -19.73830078 299.8353125 -21.51171875 300.6875 C-46.23243189 311.51162069 -73.42761463 313.12586162 -100 314 C-100.12552246 314.66531738 -100.25104492 315.33063477 -100.38037109 316.01611328 C-104.33916987 336.48918479 -117.27307989 350.53463286 -131 365.4375 C-135.23827639 370.16037061 -138.99667445 374.39221247 -139.75 380.9375 C-138.29749706 403.90998072 -109.38065601 436.64493576 -94 452 C-90.7634996 454.76111906 -87.39057531 456.80826303 -83.5625 458.6875 C-76.93849411 462.33593665 -72.77413968 469.7097672 -69 476 C-81.54 476 -94.08 476 -107 476 C-107 472.04 -107 468.08 -107 464 C-107.886875 463.731875 -108.77375 463.46375 -109.6875 463.1875 C-115.95377865 460.94109822 -118.78625591 458.35527292 -121.9375 452.5625 C-129.28072465 439.74857298 -137.59036252 426.95707564 -147.83984375 416.265625 C-149.67893861 414.33673708 -151.40054672 412.36636171 -153.12890625 410.33984375 C-155.90652203 407.14452743 -158.82225156 404.17164515 -161.875 401.23828125 C-162.71417969 400.42939453 -163.55335938 399.62050781 -164.41796875 398.78710938 C-166.16149147 397.11612353 -167.91437404 395.45485719 -169.67578125 393.80273438 C-170.50464844 392.99771484 -171.33351562 392.19269531 -172.1875 391.36328125 C-172.94417969 390.64438721 -173.70085937 389.92549316 -174.48046875 389.18481445 C-176 387 -176 387 -175.82202148 384.47094727 C-175.55075439 383.65553467 -175.2794873 382.84012207 -175 382 C-174.68687866 381.01894287 -174.68687866 381.01894287 -174.36743164 380.01806641 C-174.01733032 379.06939697 -174.01733032 379.06939697 -173.66015625 378.1015625 C-170.17978379 368.37436769 -167.88234552 359.31431487 -167 349 C-167.54914063 349.70962891 -167.54914063 349.70962891 -168.109375 350.43359375 C-174.03934327 357.67662643 -181.33291808 362.98656316 -189.1640625 368.04296875 C-191.64102398 369.75227688 -193.40688659 371.26651835 -195.3125 373.5625 C-196.04919922 374.43068359 -196.04919922 374.43068359 -196.80078125 375.31640625 C-200.94389468 381.13295963 -199.2480512 390.09523017 -198.3125 396.75 C-193.4007932 430.08113084 -193.4007932 430.08113084 -175 457 C-174.03578125 457.60070312 -173.0715625 458.20140625 -172.078125 458.8203125 C-168.67023895 461.233511 -166.63737794 463.69443953 -164.1875 467.0625 C-163.41792969 468.10535156 -162.64835938 469.14820313 -161.85546875 470.22265625 C-160 473 -160 473 -159 476 C-171.21 476 -183.42 476 -196 476 C-196 472.04 -196 468.08 -196 464 C-197.65 463.34 -199.3 462.68 -201 462 C-203.84323158 460.40909567 -205.63382751 459.24616268 -206.57763672 456.03417969 C-206.96844924 453.48344446 -207.21746874 450.94610596 -207.4375 448.375 C-209.69813244 428.21488237 -214.73468684 408.91228427 -222 390 C-222.53391364 388.57163681 -223.06776971 387.1432521 -223.6015625 385.71484375 C-225.65865162 380.31262427 -227.71999778 375.14318515 -230.9375 370.3125 C-233 367 -233 367 -232.953125 365.08203125 C-231.55877213 362.03617026 -229.37967234 360.50218463 -226.8125 358.375 C-221.5852033 353.84416967 -217.97402891 349.25153015 -215 343 C-214.66226563 342.30648438 -214.32453125 341.61296875 -213.9765625 340.8984375 C-210.31479941 331.92879763 -210.7169238 321.46570256 -214.0625 312.5 C-215.00462137 310.3169702 -215.98639025 308.15076895 -217 306 C-217.29422852 305.37528809 -217.58845703 304.75057617 -217.89160156 304.10693359 C-218.19807617 303.4567627 -218.50455078 302.8065918 -218.8203125 302.13671875 C-219.28425415 301.15058594 -219.28425415 301.15058594 -219.75756836 300.14453125 C-220.63860393 298.29040126 -221.54324761 296.44754312 -222.44921875 294.60546875 C-227.32229707 283.27586852 -227.7178823 270.23520697 -223.9921875 258.47265625 C-221.90754373 253.27746134 -219.09594777 248.64392165 -216 244 C-216.20923425 241.424426 -216.64362142 240.33901655 -218.5234375 238.55078125 C-219.13445312 238.14214844 -219.74546875 237.73351562 -220.375 237.3125 C-220.98085937 236.89613281 -221.58671875 236.47976563 -222.2109375 236.05078125 C-226.84902697 233.3266632 -231.78923089 233.43774376 -237 234 C-240.89414926 235.285804 -243.54357061 237.54357061 -246.4375 240.4375 C-249.72561802 247.93440909 -248.86205299 257.41555957 -246 265 C-244.02965198 266.5748108 -244.02965198 266.5748108 -242 267 C-242 268.32 -242 269.64 -242 271 C-246.31761133 273.44208786 -250.12563706 273.72525123 -255 273 C-257.32002877 271.89293233 -258.97257365 270.62194108 -261 269 C-261.33 269 -261.66 269 -262 269 C-259.83369976 281.11774195 -254.21103536 290.86033024 -247.8125 301.1875 C-240.87929213 312.81249512 -237.88949004 323.46146942 -240 337 C-242.61529604 344.77931695 -248.77300085 351.07331246 -255.890625 355.05859375 C-264.18818575 358.82857244 -273.00575156 359.26005399 -281.625 356.375 C-289.32968403 353.28442053 -295.13071438 348.69526772 -300 342 C-300 341.34 -300 340.68 -300 340 C-299.04738281 339.96261719 -298.09476563 339.92523438 -297.11328125 339.88671875 C-295.85902344 339.82097656 -294.60476563 339.75523437 -293.3125 339.6875 C-292.07113281 339.62949219 -290.82976562 339.57148438 -289.55078125 339.51171875 C-284.75043535 338.81991973 -282.21228818 337.55066312 -279.22265625 333.7265625 C-276.49339856 327.64023066 -276.80602957 320.22202659 -279.1015625 314.02734375 C-280.6012833 311.24042942 -282.2402777 308.62982889 -284 306 C-284.52980469 305.13117188 -285.05960938 304.26234375 -285.60546875 303.3671875 C-288.43570558 298.75544768 -291.46425332 294.32369511 -294.65063477 289.9543457 C-304.3095139 276.69285675 -314.16972756 261.88220631 -315 245 C-315.05027344 244.1853125 -315.10054688 243.370625 -315.15234375 242.53125 C-315.57557724 230.7484297 -312.83728328 220.60725959 -306 211 C-304.88625 209.4221875 -304.88625 209.4221875 -303.75 207.8125 C-293.95970992 197.79970333 -280.82214747 191.99996432 -266.82006836 191.75878906 C-247.48172092 191.68553004 -230.17711801 197.43927842 -216 211 C-216 211.66 -216 212.32 -216 213 C-215.01 213.33 -214.02 213.66 -213 214 C-211.45063474 215.86037965 -209.98123205 217.78817827 -208.5625 219.75 C-205.78282193 223.56911775 -202.98006053 227.33432191 -200 231 C-199.40574219 230.61328125 -198.81148438 230.2265625 -198.19921875 229.828125 C-180.76066351 218.87139667 -161.4261031 217.59907012 -141.375 216.375 C-139.49473332 216.25350385 -137.61452431 216.13111167 -135.734375 216.0078125 C-120.98043194 215.04676196 -120.98043194 215.04676196 -115.95874023 214.78686523 C-108.48337681 214.35725842 -101.5373908 213.27964553 -94.3125 211.3125 C-92.82061157 210.90994995 -92.82061157 210.90994995 -91.29858398 210.49926758 C-79.72083665 207.24394797 -71.10604263 203.02459585 -64 193 C-61.48121962 188.06319045 -61.85414687 184.28855289 -63 179 C-66.4352048 176.70986347 -67.985331 176.82157027 -72 177 C-72.66 178.32 -73.32 179.64 -74 181 C-76.81579728 180.02903542 -77.96750077 179.0441061 -79.75 176.625 C-81.91451279 170.3479129 -82.29379468 163.15965209 -79.5 157 C-79.005 156.01 -78.51 155.02 -78 154 C-77.56470692 150.10610269 -77.56470692 150.10610269 -79.5625 148.1875 C-83.03806804 146.49427454 -85.29271672 147.13938067 -89 148 C-91.33588323 148.95584438 -91.33588323 148.95584438 -93 150 C-95.36666524 146.28499561 -95.29952519 142.9585868 -95.3125 138.625 C-95.32925781 137.33851563 -95.34601563 136.05203125 -95.36328125 134.7265625 C-94.72411831 128.16998778 -91.84576067 124.28230013 -87 120 C-81.59459459 116 -81.59459459 116 -78 116 C-78 115.34 -78 114.68 -78 114 C-78.556875 113.99742187 -79.11375 113.99484375 -79.6875 113.9921875 C-87.76403806 113.58290348 -92.52135706 109.88576074 -97.875 104.0625 C-102.29141652 97.69766443 -102.27033149 91.46415268 -102 84 C-100.948125 84.5259375 -100.948125 84.5259375 -99.875 85.0625 C-96.49731414 86.1639193 -94.41919407 85.79516141 -91 85 C-89.72129998 79.30397263 -90.23322867 76.13828962 -93 71 C-94.58245275 69.24850835 -94.58245275 69.24850835 -96 68 C-96 67.34 -96 66.68 -96 66 C-96.61875 65.690625 -97.2375 65.38125 -97.875 65.0625 C-99.25 64.375 -100.625 63.6875 -102 63 C-99.27584373 56.31343461 -93.21654095 52.21332137 -87 49 C-83.96528123 48.00681931 -81.18346448 47.86529432 -78 47.875 C-76.7315625 47.87113281 -76.7315625 47.87113281 -75.4375 47.8671875 C-73.15301056 47.99166289 -71.19008426 48.36122543 -69 49 C-69.495 48.030625 -69.99 47.06125 -70.5 46.0625 C-72.66269835 40.92997185 -73.1156471 35.90744395 -71.09765625 30.6484375 C-70.14276945 28.7250712 -69.07989259 26.85606539 -68 25 C-66.6078125 25.99 -66.6078125 25.99 -65.1875 27 C-60.26917292 29.77775962 -55.50378175 29.88283204 -50 29 C-43.56640478 26.72999034 -39.87639421 21.75743124 -35.95703125 16.40234375 C-33.83351806 13.79563594 -31.78947706 11.87845034 -29 10 C-27.68 10 -26.36 10 -25 10 C-24.70996094 11.04800781 -24.70996094 11.04800781 -24.4140625 12.1171875 C-24.15367187 13.02726562 -23.89328125 13.93734375 -23.625 14.875 C-23.24214844 16.23238281 -23.24214844 16.23238281 -22.8515625 17.6171875 C-22.1395685 20.14569726 -22.1395685 20.14569726 -20 22 C-15.73080215 22.31623688 -12.60345148 22.38558517 -9 20 C-4.73836463 13.90450687 -2.09189239 7.08919087 0 0 Z " fill="#010301" transform="translate(379,79)"/>
<path d="M0 0 C0.99 0.495 0.99 0.495 2 1 C1.01 1.763125 0.02 2.52625 -1 3.3125 C-12.77921298 13.50056929 -21.20163404 29.58309913 -23 45 C-24.27206184 65.59096016 -21.59296106 83.24632327 -8.0625 99.4375 C4.29946761 112.51626129 22.92198267 117.11943923 39.69873047 121.74389648 C49.21139133 124.43294738 56.45664898 129.59568174 63 137 C63 137.66 63 138.32 63 139 C62.30390625 138.71382812 61.6078125 138.42765625 60.890625 138.1328125 C48.52756768 133.28783058 38.5728101 130.83651005 26 136 C21.54113345 138.29038181 17.37434889 140.60828569 13.8359375 144.19140625 C12 146 12 146 10 146 C9.73670898 146.58330078 9.47341797 147.16660156 9.20214844 147.76757812 C7.946144 150.10001204 6.55634756 151.77314866 4.765625 153.71875 C1.1281816 157.78877457 -2.088664 162.05467825 -5.25 166.5 C-6.0857959 167.66523193 -6.0857959 167.66523193 -6.93847656 168.85400391 C-10.60525551 173.9852014 -14.19440737 179.16636315 -17.75 184.375 C-24.22896632 193.85128294 -31.02558594 202.97969632 -38.4375 211.75 C-38.95820068 212.37148926 -39.47890137 212.99297852 -40.01538086 213.63330078 C-41.29836423 215.12888074 -42.6441652 216.57013366 -44 218 C-44.66 218 -45.32 218 -46 218 C-46.33 218.99 -46.66 219.98 -47 221 C-51.95481593 225.65522241 -62.07402793 235 -69 235 C-68.97679687 233.99839844 -68.95359375 232.99679687 -68.9296875 231.96484375 C-68.91091211 230.62240336 -68.89271382 229.27995482 -68.875 227.9375 C-68.85179687 226.62652344 -68.82859375 225.31554687 -68.8046875 223.96484375 C-69.00821419 219.83325196 -69.60384895 216.86513396 -71 213 C-72.88370471 211.6830333 -72.88370471 211.6830333 -75 211 C-75.37769531 210.55398438 -75.75539063 210.10796875 -76.14453125 209.6484375 C-78.9414678 207.16358019 -82.28419732 206.13356703 -85.75 204.875 C-86.78640625 204.47861328 -86.78640625 204.47861328 -87.84375 204.07421875 C-107.27648969 196.87826063 -138.0574357 198.4044226 -157.19140625 206.3203125 C-167.54721981 211.47708497 -175.98079879 218.96422718 -180 230 C-181.11339697 234.94432097 -181.60486678 239.95183247 -182 245 C-182.66 244.67 -183.32 244.34 -184 244 C-184.7238325 219.38969486 -184.7238325 219.38969486 -176.1484375 209.16796875 C-158.97222094 191.83560477 -134.20619524 189.18375999 -111.00595093 188.16766357 C-80.50362869 186.78409613 -47.56646228 185.1695974 -24 163 C-18.43044328 156.17818748 -15.44853732 149.62549372 -15.69921875 140.74609375 C-16.62135075 132.32714839 -20.34864464 125.17569036 -24.375 117.875 C-29.122386 109.25038722 -32.34124905 100.46351427 -35 91 C-35.26683594 90.07445312 -35.53367187 89.14890625 -35.80859375 88.1953125 C-40.81453304 66.58346426 -36.29316278 43.14999979 -25.3125 24.1875 C-18.738 14.08155429 -10.12171127 6.433105 0 0 Z " fill="#05694B" transform="translate(350,118)"/>
<path d="M0 0 C6.37771745 1.02358428 11.45504415 4.07576509 16.5625 7.9375 C18.52127107 10.74791067 18.28021657 12.63740117 18 16 C18 20.30679602 18.24638754 20.80553569 20.7734375 23.96875 C21.3509375 24.70480469 21.9284375 25.44085938 22.5234375 26.19921875 C23.13445312 26.95847656 23.74546875 27.71773437 24.375 28.5 C25.57326626 30.00807442 26.76868631 31.51841571 27.9609375 33.03125 C28.76217041 34.02995117 28.76217041 34.02995117 29.57958984 35.04882812 C31 37 31 37 32.00244141 39.18554688 C32.92652734 41.35271838 32.92652734 41.35271838 36 42 C37.3884255 43.96215504 38.71321463 45.96973864 40 48 C42.36616949 51.14966932 44.76622642 54.27104201 47.171875 57.390625 C49 60 49 60 49 62 C46.69 62 44.38 62 42 62 C42.15597656 62.78246094 42.31195313 63.56492188 42.47265625 64.37109375 C42.66730469 65.38300781 42.86195313 66.39492187 43.0625 67.4375 C43.35833984 68.95150391 43.35833984 68.95150391 43.66015625 70.49609375 C43.77230469 71.32238281 43.88445312 72.14867187 44 73 C43 74 43 74 39.5625 74.1875 C36 74 36 74 34 72 C34.02713208 70.2134567 34.06572948 68.42582374 34.18139648 66.64282227 C34.64895517 59.0008063 34.06467656 54.30383148 28.98828125 48.23046875 C28.33214844 47.49441406 27.67601562 46.75835937 27 46 C25.87026372 44.46180071 24.74518291 42.92017033 23.625 41.375 C15.85614212 31.59456285 8.42017715 26.5923304 -4 25 C-3.21625 24.236875 -2.4325 23.47375 -1.625 22.6875 C1.88121569 19.09780299 3.2898714 17.08820619 3.3125 12.125 C3.24489703 7.90903269 2.57665435 5.43553913 0 2 C0 1.34 0 0.68 0 0 Z " fill="#0C6748" transform="translate(384,108)"/>
<path d="M0 0 C-2 1 -2 1 -5.3125 0.0625 C-15.21555528 -2.53884604 -24.85797923 -1.56337932 -34 3 C-35.33361957 3.99961824 -36.66701074 4.9995414 -38 6 C-38.66 6 -39.32 6 -40 6 C-41.56629708 9.01970788 -42.87625164 12.08650414 -44.125 15.25 C-44.47820312 16.14203125 -44.83140625 17.0340625 -45.1953125 17.953125 C-45.46085937 18.62859375 -45.72640625 19.3040625 -46 20 C-46.66 20 -47.32 20 -48 20 C-48.99 17.03 -49.98 14.06 -51 11 C-58.52316796 14.76158398 -61.43587786 23.30763357 -64 31 C-64.33 31 -64.66 31 -65 31 C-65.59181288 20.36380736 -64.54748183 13.2970119 -58 4.8125 C-43.72698029 -10.56552769 -16.80552571 -11.07636922 0 0 Z " fill="#076947" transform="translate(142,289)"/>
<path d="M0 0 C0.495 1.485 0.495 1.485 1 3 C-0.98 3.66 -2.96 4.32 -5 5 C-5 5.66 -5 6.32 -5 7 C-5.66 7 -6.32 7 -7 7 C-7 7.66 -7 8.32 -7 9 C-8.32 9 -9.64 9 -11 9 C-11 9.66 -11 10.32 -11 11 C-11.66 11 -12.32 11 -13 11 C-13 11.66 -13 12.32 -13 13 C-13.66 13 -14.32 13 -15 13 C-15 13.66 -15 14.32 -15 15 C-15.66 15 -16.32 15 -17 15 C-17 15.66 -17 16.32 -17 17 C-17.66 17 -18.32 17 -19 17 C-19 17.66 -19 18.32 -19 19 C-19.66 19 -20.32 19 -21 19 C-21 19.66 -21 20.32 -21 21 C-21.66 21 -22.32 21 -23 21 C-23 21.66 -23 22.32 -23 23 C-23.66 23 -24.32 23 -25 23 C-25 24.32 -25 25.64 -25 27 C-21.68455701 28.10514766 -18.79589889 28.32107631 -15.3125 28.5625 C-14.13300781 28.64628906 -12.95351563 28.73007812 -11.73828125 28.81640625 C-10.38283203 28.90728516 -10.38283203 28.90728516 -9 29 C-9 29.33 -9 29.66 -9 30 C-17.25 30 -25.5 30 -34 30 C-24.34636109 18.73742128 -13.53558357 6.76779178 0 0 Z " fill="#4A9D81" transform="translate(469,269)"/>
<path d="M0 0 C0.66 0 1.32 0 2 0 C2 3.63 2 7.26 2 11 C13.88 10.67 25.76 10.34 38 10 C37.34 8.35 36.68 6.7 36 5 C36.99 5.33 37.98 5.66 39 6 C39.495 9.465 39.495 9.465 40 13 C26.8 13 13.6 13 0 13 C0 8.71 0 4.42 0 0 Z " fill="#2DAE80" transform="translate(530,313)"/>
<path d="M0 0 C-0.66 1.32 -1.32 2.64 -2 4 C-13.88 4 -25.76 4 -38 4 C-38 3.01 -38 2.02 -38 1 C-32.9096778 0.85723101 -27.81934567 0.71482344 -22.72900391 0.57275391 C-20.99657924 0.52435127 -19.26415734 0.47584908 -17.53173828 0.42724609 C-15.04460356 0.35748673 -12.55745914 0.28808295 -10.0703125 0.21875 C-9.29317902 0.19687622 -8.51604553 0.17500244 -7.71536255 0.15246582 C-2.22774341 0 -2.22774341 0 0 0 Z " fill="#3AA37D" transform="translate(222,554)"/>
<path d="M0 0 C12.54 0 25.08 0 38 0 C38 0.33 38 0.66 38 1 C33.45447643 2.75857606 29.71343148 3.23686694 24.8515625 3.1953125 C23.86547501 3.19106766 23.86547501 3.19106766 22.85946655 3.18673706 C20.78111767 3.17563447 18.70321634 3.15054986 16.625 3.125 C15.20703752 3.11495731 13.78906821 3.10583373 12.37109375 3.09765625 C8.91391963 3.07572805 5.45700358 3.04126818 2 3 C2 2.34 2 1.68 2 1 C1.34 0.67 0.68 0.34 0 0 Z " fill="#3FA27E" transform="translate(272,555)"/>
<path d="M0 0 C0 0.66 0 1.32 0 2 C-0.95712891 2.09087891 -0.95712891 2.09087891 -1.93359375 2.18359375 C-2.75988281 2.26738281 -3.58617187 2.35117187 -4.4375 2.4375 C-5.26121094 2.51871094 -6.08492188 2.59992188 -6.93359375 2.68359375 C-8.98662025 2.78930815 -8.98662025 2.78930815 -10 4 C-13.5601177 4.54294026 -17.16170031 4.77119892 -20.75 5.0625 C-22.39246704 5.19664307 -22.39246704 5.19664307 -24.06811523 5.33349609 C-37.37508903 6.31518109 -50.66472754 6.18682891 -64 6 C-64 5.67 -64 5.34 -64 5 C-62.55270508 4.93268677 -62.55270508 4.93268677 -61.07617188 4.86401367 C-42.63794531 3.99177566 -24.36082704 2.97630967 -6.0859375 0.24365234 C-4 0 -4 0 0 0 Z " fill="#245946" transform="translate(288,302)"/>
<path d="M0 0 C0.33 0.66 0.66 1.32 1 2 C0.34 2 -0.32 2 -1 2 C-1 2.66 -1 3.32 -1 4 C-2.875 6.125 -2.875 6.125 -5 8 C-5.66 8 -6.32 8 -7 8 C-7 8.66 -7 9.32 -7 10 C-7.66 10 -8.32 10 -9 10 C-9 10.66 -9 11.32 -9 12 C-9.66 12 -10.32 12 -11 12 C-11 13.32 -11 14.64 -11 16 C-11.66 16 -12.32 16 -13 16 C-13.98950533 19.27000589 -14.07256911 22.15628726 -14 25.5625 C-13.9422411 31.43224851 -14.35722588 37.16912053 -15 43 C-15.66 42.67 -16.32 42.34 -17 42 C-17.71859858 17.56764839 -17.71859858 17.56764839 -8.91796875 6.984375 C-6.18570803 4.15751462 -3.31886759 2.09969174 0 0 Z " fill="#1C5D47" transform="translate(183,320)"/>
<path d="M0 0 C0 0.66 0 1.32 0 2 C-2.68554688 3.46484375 -2.68554688 3.46484375 -5.37109375 4.9296875 C-7.16618315 5.91410024 -7.16618315 5.91410024 -8 8 C-9.32 8 -10.64 8 -12 8 C-12 8.66 -12 9.32 -12 10 C-12.66 10 -13.32 10 -14 10 C-14 10.66 -14 11.32 -14 12 C-15.32 12 -16.64 12 -18 12 C-18 12.66 -18 13.32 -18 14 C-18.66 14 -19.32 14 -20 14 C-20 14.66 -20 15.32 -20 16 C-20.66 16 -21.32 16 -22 16 C-22 16.66 -22 17.32 -22 18 C-23.32 18 -24.64 18 -26 18 C-26 18.66 -26 19.32 -26 20 C-26.66 20 -27.32 20 -28 20 C-28 20.66 -28 21.32 -28 22 C-28.66 22 -29.32 22 -30 22 C-30 22.66 -30 23.32 -30 24 C-31.32 23.67 -32.64 23.34 -34 23 C-6.13917526 0 -6.13917526 0 0 0 Z " fill="#48A182" transform="translate(456,328)"/>
<path d="M0 0 C0.33 0 0.66 0 1 0 C1.02698422 2.43757413 1.04683099 4.87484915 1.0625 7.3125 C1.07087891 8.00279297 1.07925781 8.69308594 1.08789062 9.40429688 C1.10307906 12.5483025 1.00193327 14.99420019 0 18 C-0.27361657 20.11175407 -0.50756021 22.22874848 -0.71875 24.34765625 C-0.91017578 26.21454102 -0.91017578 26.21454102 -1.10546875 28.11914062 C-1.36887653 30.75191444 -1.63189624 33.38472711 -1.89453125 36.01757812 C-2.08595703 37.8825293 -2.08595703 37.8825293 -2.28125 39.78515625 C-2.39533203 40.92863525 -2.50941406 42.07211426 -2.62695312 43.25024414 C-3 46 -3 46 -4 48 C-4.99 48 -5.98 48 -7 48 C-6.7009375 47.11441406 -6.401875 46.22882813 -6.09375 45.31640625 C-4.47660895 39.64644779 -4.09002766 33.78435685 -3.5 27.9375 C-3.24514488 25.52326219 -2.98864957 23.10919692 -2.73046875 20.6953125 C-2.60720215 19.54192383 -2.48393555 18.38853516 -2.35693359 17.20019531 C-1.71507259 11.44539779 -0.89875218 5.72029329 0 0 Z " fill="#46A282" transform="translate(491,347)"/>
<path d="M0 0 C0.02722517 2.20826378 0.04649729 4.41662638 0.0625 6.625 C0.07410156 7.85476563 0.08570313 9.08453125 0.09765625 10.3515625 C0.00863924 13.67723791 -0.36313913 16.74047588 -1 20 C-1.33 20 -1.66 20 -2 20 C-2 13.73 -2 7.46 -2 1 C-7.59574264 2.44041222 -7.59574264 2.44041222 -9.875 4.625 C-13.18666129 6.76783966 -16.1108527 6.19445737 -20 6 C-14.06886599 0.81025774 -7.65588163 -0.41013652 0 0 Z " fill="#24AB7D" transform="translate(476,322)"/>
<path d="M0 0 C0.66 0 1.32 0 2 0 C2 0.66 2 1.32 2 2 C2.66 2 3.32 2 4 2 C4 10.58 4 19.16 4 28 C3.34 28 2.68 28 2 28 C1.88527344 28.57234375 1.77054688 29.1446875 1.65234375 29.734375 C0.93817644 32.21471656 -0.07307872 34.06368697 -1.4375 36.25 C-1.86933594 36.95640625 -2.30117187 37.6628125 -2.74609375 38.390625 C-3.15988281 38.92171875 -3.57367188 39.4528125 -4 40 C-4.66 40 -5.32 40 -6 40 C-6 40.66 -6 41.32 -6 42 C-6.66 42 -7.32 42 -8 42 C-8 42.66 -8 43.32 -8 44 C-9.65 44 -11.3 44 -13 44 C-12.29875 43.484375 -11.5975 42.96875 -10.875 42.4375 C-5.26793099 37.68368062 1.16581551 31.30638862 2.35083008 23.76831055 C2.46434084 21.33324037 2.4481309 18.93641382 2.375 16.5 C2.37306641 15.27603516 2.37306641 15.27603516 2.37109375 14.02734375 C2.29850451 9.00255516 1.60042021 4.76285054 0 0 Z " fill="#529880" transform="translate(136,390)"/>
<path d="M0 0 C-2.9430108 2.48657163 -5.21710094 3.51280611 -9 4.1875 C-9.845625 4.34605469 -10.69125 4.50460937 -11.5625 4.66796875 C-14 5 -14 5 -18 5 C-18 5.66 -18 6.32 -18 7 C-25.26 7 -32.52 7 -40 7 C-40 6.67 -40 6.34 -40 6 C-38.89785156 5.90203125 -37.79570312 5.8040625 -36.66015625 5.703125 C-27.77092024 4.84825788 -19.21979576 3.58517509 -10.57250977 1.32128906 C-6.96028103 0.3874496 -3.73631868 -0.21680766 0 0 Z " fill="#479B7C" transform="translate(342,385)"/>
<path d="M0 0 C0 0.66 0 1.32 0 2 C-0.66 2 -1.32 2 -2 2 C-2.66 3.32 -3.32 4.64 -4 6 C-4.66 6 -5.32 6 -6 6 C-6 7.32 -6 8.64 -6 10 C-6.66 10 -7.32 10 -8 10 C-8 10.66 -8 11.32 -8 12 C-8.66 12 -9.32 12 -10 12 C-9.89300781 12.6290625 -9.78601563 13.258125 -9.67578125 13.90625 C-8.78447586 20.26997882 -9.30029173 24.16863014 -12 30 C-12.33 30 -12.66 30 -13 30 C-13.68538103 17.68217986 -11.79305693 10.62628429 -3.5859375 1.43359375 C-2 0 -2 0 0 0 Z " fill="#265B45" transform="translate(90,290)"/>
<path d="M0 0 C4.62 0 9.24 0 14 0 C14 0.99 14 1.98 14 3 C10.7 3 7.4 3 4 3 C4 3.66 4 4.32 4 5 C3.34 5 2.68 5 2 5 C2 6.32 2 7.64 2 9 C1.34 9 0.68 9 0 9 C-0.33 10.32 -0.66 11.64 -1 13 C-2.5393907 8.38182791 -1.04155025 4.71760993 0 0 Z " fill="#33A37D" transform="translate(278,393)"/>
<path d="M0 0 C3.34373475 0.55728913 6.03312999 1.35173889 9 3 C8.34 3.66 7.68 4.32 7 5 C6.80031574 6.93123211 6.68721185 8.8719689 6.625 10.8125 C6.31190576 15.7333963 5.80963446 18.55903984 2 22 C1.34 21.67 0.68 21.34 0 21 C0.48726563 20.44183594 0.97453125 19.88367188 1.4765625 19.30859375 C4.01568653 15.46084427 3.56363653 11.45850945 3 7 C1.6490712 4.0745356 1.6490712 4.0745356 0 2 C0 1.34 0 0.68 0 0 Z " fill="#1C5D45" transform="translate(384,108)"/>
<path d="M0 0 C0.90492187 0.30744141 0.90492187 0.30744141 1.828125 0.62109375 C3.02695313 1.02521484 3.02695313 1.02521484 4.25 1.4375 C5.03890625 1.70433594 5.8278125 1.97117187 6.640625 2.24609375 C15.61521027 5.11380063 23.93064658 4.16120762 33 2 C33.495 2.99 33.495 2.99 34 4 C32.68 4 31.36 4 30 4 C30 4.66 30 5.32 30 6 C22.08 6 14.16 6 6 6 C6 5.34 6 4.68 6 4 C5.34 4 4.68 4 4 4 C4 3.34 4 2.68 4 2 C2.68 2 1.36 2 0 2 C0 1.34 0 0.68 0 0 Z " fill="#3EAC84" transform="translate(90,432)"/>
<path d="M0 0 C0.33 0.66 0.66 1.32 1 2 C0.34 2 -0.32 2 -1 2 C-1 2.66 -1 3.32 -1 4 C-2.24460783 4.67667998 -3.49596896 5.34094719 -4.75 6 C-5.44609375 6.37125 -6.1421875 6.7425 -6.859375 7.125 C-9 8 -9 8 -13 8 C-13 8.66 -13 9.32 -13 10 C-15.64 10.66 -18.28 11.32 -21 12 C-21 12.66 -21 13.32 -21 14 C-23.64 14 -26.28 14 -29 14 C-26.5543679 11.5543679 -24.50611228 10.97596451 -21.25 9.8125 C-13.88251342 7.06306925 -6.96958932 3.62585831 0 0 Z " fill="#489B7F" transform="translate(375,370)"/>
<path d="M0 0 C0 0.33 0 0.66 0 1 C-0.90093384 1.03758423 -0.90093384 1.03758423 -1.82006836 1.07592773 C-4.52611437 1.1915528 -7.23178283 1.31442936 -9.9375 1.4375 C-11.35579102 1.49647461 -11.35579102 1.49647461 -12.80273438 1.55664062 C-13.70185547 1.59853516 -14.60097656 1.64042969 -15.52734375 1.68359375 C-16.77632446 1.73858032 -16.77632446 1.73858032 -18.05053711 1.79467773 C-20.00338858 1.79367103 -20.00338858 1.79367103 -21 3 C-22.68608966 3.07205511 -24.37500659 3.08386068 -26.0625 3.0625 C-26.98160156 3.05347656 -27.90070313 3.04445313 -28.84765625 3.03515625 C-29.55792969 3.02355469 -30.26820312 3.01195312 -31 3 C-22.51885693 -2.65409538 -9.63494142 -2.30280627 0 0 Z " fill="#23634A" transform="translate(128,283)"/>
<path d="M0 0 C0 0.66 0 1.32 0 2 C-6.6 2 -13.2 2 -20 2 C-20 2.66 -20 3.32 -20 4 C-20.66 4 -21.32 4 -22 4 C-22 4.66 -22 5.32 -22 6 C-22.66 6 -23.32 6 -24 6 C-24 6.66 -24 7.32 -24 8 C-24.66 8 -25.32 8 -26 8 C-26 8.66 -26 9.32 -26 10 C-27.32 10 -28.64 10 -30 10 C-30 10.66 -30 11.32 -30 12 C-31.32 11.67 -32.64 11.34 -34 11 C-33.22076172 10.41992188 -33.22076172 10.41992188 -32.42578125 9.828125 C-31.72839844 9.30734375 -31.03101563 8.7865625 -30.3125 8.25 C-29.62800781 7.73953125 -28.94351562 7.2290625 -28.23828125 6.703125 C-25.92687076 5.02255043 -25.92687076 5.02255043 -23.8359375 2.84375 C-19.75518922 0.19070153 -16.08630936 0.32914379 -11.3125 0.25 C-10.44560547 0.22035156 -9.57871094 0.19070313 -8.68554688 0.16015625 C-5.78981341 0.06550971 -2.89728494 0 0 0 Z " fill="#53917C" transform="translate(410,358)"/>
<path d="M0 0 C3.79882436 1.76998631 6.54930848 3.50328203 8.68359375 7.23828125 C7.69359375 7.23828125 6.70359375 7.23828125 5.68359375 7.23828125 C5.00296875 6.52671875 5.00296875 6.52671875 4.30859375 5.80078125 C2.21992692 3.79244776 0.50524895 3.61958601 -2.31640625 3.23828125 C-2.31640625 2.90828125 -2.31640625 2.57828125 -2.31640625 2.23828125 C-6.27640625 1.90828125 -10.23640625 1.57828125 -14.31640625 1.23828125 C-14.31640625 1.89828125 -14.31640625 2.55828125 -14.31640625 3.23828125 C-15.63640625 2.90828125 -16.95640625 2.57828125 -18.31640625 2.23828125 C-12.52924035 -1.4167709 -6.50844665 -2.14021433 0 0 Z " fill="#3FA281" transform="translate(154.31640625,312.76171875)"/>
<path d="M0 0 C1.11375 0.1546875 1.11375 0.1546875 2.25 0.3125 C2.25 0.9725 2.25 1.6325 2.25 2.3125 C5.56544299 3.41764766 8.45410111 3.63357631 11.9375 3.875 C13.11699219 3.95878906 14.29648437 4.04257812 15.51171875 4.12890625 C16.86716797 4.21978516 16.86716797 4.21978516 18.25 4.3125 C18.25 4.6425 18.25 4.9725 18.25 5.3125 C10 5.3125 1.75 5.3125 -6.75 5.3125 C-2.75 0.3125 -2.75 0.3125 0 0 Z " fill="#309371" transform="translate(441.75,293.6875)"/>
<path d="M0 0 C1.35432675 1.31200404 2.68733482 2.64631404 4 4 C4 4.33 4 4.66 4 5 C-8.54 5 -21.08 5 -34 5 C-34 4.67 -34 4.34 -34 4 C-22.78 3.67 -11.56 3.34 0 3 C0 2.01 0 1.02 0 0 Z " fill="#01190C" transform="translate(306,550)"/>
<path d="M0 0 C0.33 0 0.66 0 1 0 C0.89558594 1.66289063 0.89558594 1.66289063 0.7890625 3.359375 C0.73277477 4.822856 0.67817568 6.28640262 0.625 7.75 C0.57472656 8.47960937 0.52445312 9.20921875 0.47265625 9.9609375 C0.34283993 12.41066953 0.34283993 12.41066953 1 16 C3.90073269 18.43488304 3.90073269 18.43488304 7 20 C7 20.66 7 21.32 7 22 C7.66 22 8.32 22 9 22 C8.67 22.66 8.34 23.32 8 24 C3.92381969 21.85612662 0.74898231 19.73369238 -2 16 C-2.76250475 10.64098777 -1.27088263 5.18419449 0 0 Z " fill="#41A57F" transform="translate(397,88)"/>
<path d="M0 0 C1.953125 0.4921875 1.953125 0.4921875 4 2 C4.46588547 4.82517725 4.69615501 7.29079561 4.75 10.125 C4.77964844 10.87910156 4.80929687 11.63320313 4.83984375 12.41015625 C4.91057932 14.27285953 4.95754983 16.13643755 5 18 C3.68 18.33 2.36 18.66 1 19 C1.01160156 17.96359375 1.02320313 16.9271875 1.03515625 15.859375 C1.04453837 14.48958514 1.05363812 13.11979332 1.0625 11.75 C1.07087891 11.06808594 1.07925781 10.38617188 1.08789062 9.68359375 C1.10428392 6.30657446 1.05628768 3.22708361 0 0 Z " fill="#1D644D" transform="translate(280,334)"/>
<path d="M0 0 C0.33 0.66 0.66 1.32 1 2 C0.34 2 -0.32 2 -1 2 C-1 2.66 -1 3.32 -1 4 C-2.875 6.125 -2.875 6.125 -5 8 C-5.66 8 -6.32 8 -7 8 C-7 8.66 -7 9.32 -7 10 C-7.66 10 -8.32 10 -9 10 C-9 10.66 -9 11.32 -9 12 C-9.66 12 -10.32 12 -11 12 C-11 13.32 -11 14.64 -11 16 C-11.99 16 -12.98 16 -14 16 C-11.77553498 8.65926543 -6.40600748 3.81309969 0 0 Z " fill="#2A5A4A" transform="translate(183,320)"/>
<path d="M0 0 C0.99 0 1.98 0 3 0 C3 1.32 3 2.64 3 4 C3.99 4.33 4.98 4.66 6 5 C7.0625 6.875 7.0625 6.875 8 9 C9.22436317 10.83654475 10.45260237 12.67052203 11.6875 14.5 C12.120625 15.325 12.55375 16.15 13 17 C12.67 17.99 12.34 18.98 12 20 C10.36919073 17.60794581 8.74527814 15.21167218 7.125 12.8125 C6.66480469 12.13896484 6.20460937 11.46542969 5.73046875 10.77148438 C3.37990182 7.27970017 1.35855965 4.02102425 0 0 Z " fill="#30AE83" transform="translate(245,476)"/>
<path d="M0 0 C0.33 1.32 0.66 2.64 1 4 C0.34 4 -0.32 4 -1 4 C-1 4.66 -1 5.32 -1 6 C-1.66 6 -2.32 6 -3 6 C-3 6.66 -3 7.32 -3 8 C-4.32 8 -5.64 8 -7 8 C-7 8.66 -7 9.32 -7 10 C-8.8125 11.0625 -8.8125 11.0625 -11 12 C-11.99 11.67 -12.98 11.34 -14 11 C-13.15695312 10.37351562 -12.31390625 9.74703125 -11.4453125 9.1015625 C-10.33847821 8.27612676 -9.23171086 7.45060124 -8.125 6.625 C-7.56941406 6.2125 -7.01382812 5.8 -6.44140625 5.375 C-4.1649876 3.6745427 -2.0120881 2.0120881 0 0 Z " fill="#235948" transform="translate(327,280)"/>
<path d="M0 0 C0.66 0 1.32 0 2 0 C2 3.63 2 7.26 2 11 C4.31 11 6.62 11 9 11 C9 11.66 9 12.32 9 13 C6.03 13 3.06 13 0 13 C0 8.71 0 4.42 0 0 Z " fill="#23A273" transform="translate(530,313)"/>
<path d="M0 0 C0 3 0 3 -1 6 C-1.66 6 -2.32 6 -3 6 C-3 6.66 -3 7.32 -3 8 C-3.66 8 -4.32 8 -5 8 C-5 9.32 -5 10.64 -5 12 C-5.66 12 -6.32 12 -7 12 C-7 12.66 -7 13.32 -7 14 C-7.66 14 -8.32 14 -9 14 C-9 14.66 -9 15.32 -9 16 C-9.66 16 -10.32 16 -11 16 C-9.6020749 11.93064734 -7.66821145 9.06055399 -4.9375 5.75 C-4.22464844 4.87859375 -3.51179687 4.0071875 -2.77734375 3.109375 C-1.88187356 2.04661917 -0.98267919 0.98267919 0 0 Z " fill="#459A7E" transform="translate(251,440)"/>
<path d="M0 0 C0.33 0 0.66 0 1 0 C1.33786247 9.27244773 1.09424624 17.14087832 -2 26 C-3.05284747 22.70354467 -2.93680928 20.20524788 -2.44140625 16.796875 C-2.30283203 15.8171875 -2.16425781 14.8375 -2.02148438 13.828125 C-1.87001953 12.81234375 -1.71855469 11.7965625 -1.5625 10.75 C-1.41490234 9.71875 -1.26730469 8.6875 -1.11523438 7.625 C-0.75030495 5.08226597 -0.37832478 2.54076963 0 0 Z " fill="#4F977F" transform="translate(491,347)"/>
<path d="M0 0 C-5.63284189 4.42580434 -8.88709728 5.23709676 -16 5 C-11.53321948 1.09156705 -5.86504904 -1.93756084 0 0 Z " fill="#3EA381" transform="translate(472,323)"/>
<path d="M0 0 C0.66 0 1.32 0 2 0 C2.33 1.32 2.66 2.64 3 4 C3.66 4 4.32 4 5 4 C5 4.66 5 5.32 5 6 C5.66 6 6.32 6 7 6 C7 7.32 7 8.64 7 10 C7.66 10.33 8.32 10.66 9 11 C9 11.99 9 12.98 9 14 C9.66 14 10.32 14 11 14 C11 15.65 11 17.3 11 19 C8.20546164 15.50021536 6.01266789 11.69959589 3.8125 7.8125 C3.44447266 7.17119141 3.07644531 6.52988281 2.69726562 5.86914062 C0 1.13016002 0 1.13016002 0 0 Z " fill="#36A982" transform="translate(125,370)"/>
<path d="M0 0 C-2 3 -2 3 -4.3125 3.4765625 C-5.6428125 3.55003906 -5.6428125 3.55003906 -7 3.625 C-10.63825879 3.78774199 -10.63825879 3.78774199 -14 5 C-15.99960012 5.039992 -18.00047242 5.04346799 -20 5 C-16.93138727 3.33933899 -13.92435277 2.29822725 -10.5625 1.375 C-9.63566406 1.11460937 -8.70882812 0.85421875 -7.75390625 0.5859375 C-5.07608341 0.01618796 -2.72741575 -0.10889863 0 0 Z " fill="#265A48" transform="translate(216,309)"/>
<path d="M0 0 C0 0.66 0 1.32 0 2 C-1.2065625 2.433125 -1.2065625 2.433125 -2.4375 2.875 C-5.1326468 3.73262568 -5.1326468 3.73262568 -6 6 C-9.63 6 -13.26 6 -17 6 C-13.9666221 3.97774806 -11.38655511 3.00652476 -7.9375 1.875 C-6.87402344 1.52179688 -5.81054688 1.16859375 -4.71484375 0.8046875 C-2 0 -2 0 0 0 Z " fill="#032E16" transform="translate(474,238)"/>
<path d="M0 0 C2.64 1.65 5.28 3.3 8 5 C6.68 5.33 5.36 5.66 4 6 C4 8.64 4 11.28 4 14 C1.90284215 10.85426323 1.47995441 8.98543749 0.875 5.3125 C0.70742187 4.31863281 0.53984375 3.32476562 0.3671875 2.30078125 C0.24601562 1.54152344 0.12484375 0.78226562 0 0 Z " fill="#42A886" transform="translate(116,346)"/>
<path d="M0 0 C0.66 0.33 1.32 0.66 2 1 C1.55269531 1.37511719 1.10539062 1.75023438 0.64453125 2.13671875 C-3.07368722 5.2841233 -6.607181 8.5043683 -10 12 C-10 11.34 -10 10.68 -10 10 C-10.66 9.67 -11.32 9.34 -12 9 C-8.04 6.03 -4.08 3.06 0 0 Z " fill="#2C5C4C" transform="translate(350,118)"/>
<path d="M0 0 C-2.81707532 1.40853766 -4.58229062 0.34145939 -7.4921875 -0.453125 C-12.25967674 -1.4927644 -17.13913217 -1.69214504 -22 -2 C-22 -2.33 -22 -2.66 -22 -3 C-20.10507254 -3.19644384 -18.20899097 -3.38177288 -16.3125 -3.5625 C-14.72888672 -3.71912109 -14.72888672 -3.71912109 -13.11328125 -3.87890625 C-7.76691073 -4.08685793 -4.45049486 -2.92461091 0 0 Z " fill="#20654E" transform="translate(142,289)"/>
<path d="M0 0 C0.33 0.66 0.66 1.32 1 2 C0.22265625 3.7265625 0.22265625 3.7265625 -0.9375 5.625 C-1.618125 6.73875 -2.29875 7.8525 -3 9 C-3.99 9 -4.98 9 -6 9 C-6 9.66 -6 10.32 -6 11 C-6.66 11 -7.32 11 -8 11 C-8 11.66 -8 12.32 -8 13 C-9.32 12.67 -10.64 12.34 -12 12 C-11.30132812 11.38511719 -10.60265625 10.77023437 -9.8828125 10.13671875 C-8.51769531 8.92435547 -8.51769531 8.92435547 -7.125 7.6875 C-6.22007812 6.88699219 -5.31515625 6.08648437 -4.3828125 5.26171875 C-1.86787689 3.04188943 -1.86787689 3.04188943 0 0 Z " fill="#49A284" transform="translate(212,427)"/>
<path d="M0 0 C0.33 0.66 0.66 1.32 1 2 C0.34 2 -0.32 2 -1 2 C-1 2.66 -1 3.32 -1 4 C-2.98 4.66 -4.96 5.32 -7 6 C-7 6.66 -7 7.32 -7 8 C-7.66 8 -8.32 8 -9 8 C-9 8.66 -9 9.32 -9 10 C-10.65 10.33 -12.3 10.66 -14 11 C-10.5015385 5.59328677 -5.4894871 3.04855104 0 0 Z " fill="#4DA386" transform="translate(199,440)"/>
<path d="M0 0 C2.33771101 0.9350844 3.81834235 1.79563515 5.5 3.6875 C6.11955599 6.55294646 5.54596907 7.25574578 4.125 9.75 C3.073125 11.35875 3.073125 11.35875 2 13 C1.67 13 1.34 13 1 13 C1 10.69 1 8.38 1 6 C1.66 5.67 2.32 5.34 3 5 C2.34 4.67 1.68 4.34 1 4 C0.375 1.9375 0.375 1.9375 0 0 Z " fill="#24B884" transform="translate(297,226)"/>
<path d="M0 0 C4.88049925 3.9419417 9.0580583 8.11950075 13 13 C12.01 13.495 12.01 13.495 11 14 C11 13.34 11 12.68 11 12 C10.34 12 9.68 12 9 12 C9 11.34 9 10.68 9 10 C8.34 10 7.68 10 7 10 C5.65080468 8.34614767 4.31866272 6.678298 3 5 C2.01 4.34 1.02 3.68 0 3 C0 2.01 0 1.02 0 0 Z " fill="#38AD86" transform="translate(217,480)"/>
<path d="M0 0 C4.29 0 8.58 0 13 0 C13 0.99 13 1.98 13 3 C8.71 2.67 4.42 2.34 0 2 C0 1.34 0 0.68 0 0 Z " fill="#3BAF87" transform="translate(279,393)"/>
<path d="M0 0 C0.33 0.99 0.66 1.98 1 3 C-0.2065625 3.8971875 -0.2065625 3.8971875 -1.4375 4.8125 C-4.22327984 6.80947276 -4.22327984 6.80947276 -5 10 C-5.66 10 -6.32 10 -7 10 C-7.66 11.32 -8.32 12.64 -9 14 C-9 8.86773023 -5.68003902 5.71094988 -2.25 2.125 C-1.5075 1.42375 -0.765 0.7225 0 0 Z " fill="#28594A" transform="translate(335,130)"/>
<path d="M0 0 C0.33 0 0.66 0 1 0 C0.88617347 1.95901454 0.75858875 3.9172338 0.625 5.875 C0.55539063 6.96554687 0.48578125 8.05609375 0.4140625 9.1796875 C0 12 0 12 -2 14 C-1.67 12.35 -1.34 10.7 -1 9 C-1.66 9 -2.32 9 -3 9 C-2.44271087 5.65626525 -1.64826111 2.96687001 0 0 Z " fill="#24B785" transform="translate(211,431)"/>
<path d="M0 0 C0.66 0 1.32 0 2 0 C2 0.66 2 1.32 2 2 C2.66 2 3.32 2 4 2 C4 8.27 4 14.54 4 21 C3.67 21 3.34 21 3 21 C2.92652344 19.60587891 2.92652344 19.60587891 2.8515625 18.18359375 C2.30322854 8.92339067 2.30322854 8.92339067 0 0 Z " fill="#3C876E" transform="translate(136,390)"/>
<path d="M0 0 C3.387199 1.4388102 5.3594104 3.22119499 7.75 6 C8.67039062 7.051875 8.67039062 7.051875 9.609375 8.125 C11 10 11 10 11 12 C10.01 12 9.02 12 8 12 C7.7525 11.05125 7.505 10.1025 7.25 9.125 C6.3142923 5.91306809 6.3142923 5.91306809 3.875 4.625 C3.25625 4.41875 2.6375 4.2125 2 4 C2 3.34 2 2.68 2 2 C1.34 2 0.68 2 0 2 C0 1.34 0 0.68 0 0 Z " fill="#30A57B" transform="translate(502,288)"/>
<path d="M0 0 C0.66 0 1.32 0 2 0 C2 0.66 2 1.32 2 2 C2.66 2 3.32 2 4 2 C4.33 3.65 4.66 5.3 5 7 C5.66 6.67 6.32 6.34 7 6 C7.33 7.98 7.66 9.96 8 12 C3.92798692 9.1385854 1.90178748 6.60432758 0 2 C0 1.34 0 0.68 0 0 Z " fill="#2FAE81" transform="translate(192,520)"/>
<path d="M0 0 C0.33 1.32 0.66 2.64 1 4 C0.34 4 -0.32 4 -1 4 C-1 4.66 -1 5.32 -1 6 C-1.66 6 -2.32 6 -3 6 C-3 6.66 -3 7.32 -3 8 C-3.66 8 -4.32 8 -5 8 C-5 8.66 -5 9.32 -5 10 C-5.66 10 -6.32 10 -7 10 C-7 10.66 -7 11.32 -7 12 C-7.66 11.67 -8.32 11.34 -9 11 C-6.03 7.37 -3.06 3.74 0 0 Z " fill="#529B83" transform="translate(265,424)"/>
<path d="M0 0 C0 0.66 0 1.32 0 2 C-0.66 2 -1.32 2 -2 2 C-2 3.32 -2 4.64 -2 6 C-2.9075 6.28875 -3.815 6.5775 -4.75 6.875 C-7.32202908 7.76531776 -9.61346766 8.71494413 -12 10 C-4.57142857 0 -4.57142857 0 0 0 Z " fill="#499F7E" transform="translate(470,418)"/>
<path d="M0 0 C2.3125 -0.3125 2.3125 -0.3125 5 0 C6.5 2.1875 6.5 2.1875 8 5 C9.62836738 6.7041054 11.28769752 8.38025441 13 10 C12.67 10.66 12.34 11.32 12 12 C8 8 4 4 0 0 Z " fill="#1B634B" transform="translate(395,136)"/>
<path d="M0 0 C0.99 0 1.98 0 3 0 C2.5206753 4.31392226 1.2542015 6.16569547 -2 9 C-2.66 8.34 -3.32 7.68 -4 7 C-3.34 6.34 -2.68 5.68 -2 5 C-1.29289322 3.35008418 -0.62056011 1.68437744 0 0 Z " fill="#12674C" transform="translate(337,128)"/>
<path d="M0 0 C1.25541557 3.76624671 0.37061958 5.37188934 -1 9 C-1.66 9 -2.32 9 -3 9 C-3 9.66 -3 10.32 -3 11 C-3.66 11 -4.32 11 -5 11 C-5.33 11.66 -5.66 12.32 -6 13 C-6.33 12.34 -6.66 11.68 -7 11 C-5.56640625 8.3984375 -5.56640625 8.3984375 -3.5625 5.375 C-2.90378906 4.37210937 -2.24507813 3.36921875 -1.56640625 2.3359375 C-1.04949219 1.56507813 -0.53257812 0.79421875 0 0 Z " fill="#4A997F" transform="translate(273,411)"/>
<path d="M0 0 C0.33 0 0.66 0 1 0 C1 4.95 1 9.9 1 15 C-1.19389529 11.70915707 -1.69354318 9.90732442 -2 6 C-1.0625 2.625 -1.0625 2.625 0 0 Z " fill="#003417" transform="translate(467,371)"/>
<path d="M0 0 C0 1.32 0 2.64 0 4 C-1.98 4 -3.96 4 -6 4 C-6 4.66 -6 5.32 -6 6 C-7.98 6 -9.96 6 -12 6 C-3 0 -3 0 0 0 Z " fill="#469F81" transform="translate(422,352)"/>
<path d="M0 0 C2.64 0 5.28 0 8 0 C8 0.66 8 1.32 8 2 C9.175625 2.185625 9.175625 2.185625 10.375 2.375 C13 3 13 3 15 5 C9.54520815 4.43179252 5.08940744 3.05362055 0 1 C0 0.67 0 0.34 0 0 Z " fill="#125F47" transform="translate(258,320)"/>
<path d="M0 0 C0.66 0 1.32 0 2 0 C2.33 1.32 2.66 2.64 3 4 C3.66 4 4.32 4 5 4 C5.33 3.34 5.66 2.68 6 2 C5.67 4.31 5.34 6.62 5 9 C4.34 9 3.68 9 3 9 C2.01 6.03 1.02 3.06 0 0 Z " fill="#1C644C" transform="translate(91,300)"/>
<path d="M0 0 C2.93200474 2.85276137 5.64315404 5.65079784 8 9 C6.68 9 5.36 9 4 9 C4 8.34 4 7.68 4 7 C3.34 7 2.68 7 2 7 C2 6.34 2 5.68 2 5 C1.34 4.67 0.68 4.34 0 4 C0 2.68 0 1.36 0 0 Z " fill="#14634C" transform="translate(336,211)"/>
<path d="M0 0 C-1.98 0.66 -3.96 1.32 -6 2 C-6 2.66 -6 3.32 -6 4 C-8.64 4 -11.28 4 -14 4 C-11.97803833 1.97803833 -10.74135514 1.32448642 -8.125 0.3125 C-7.44695312 0.04050781 -6.76890625 -0.23148437 -6.0703125 -0.51171875 C-3.68892218 -1.07336741 -2.29569809 -0.76694846 0 0 Z " fill="#48A686" transform="translate(360,380)"/>
<path d="M0 0 C0.66 0 1.32 0 2 0 C2 0.99 2 1.98 2 3 C1.34 3 0.68 3 0 3 C0 3.66 0 4.32 0 5 C-0.66 5 -1.32 5 -2 5 C-2 5.66 -2 6.32 -2 7 C-3.32 6.67 -4.64 6.34 -6 6 C-4 4 -2 2 0 0 Z " fill="#011C0A" transform="translate(294,197)"/>
<path d="M0 0 C0 0.66 0 1.32 0 2 C-1.32 2 -2.64 2 -4 2 C-4 2.66 -4 3.32 -4 4 C-7.47307692 6.10865385 -7.47307692 6.10865385 -10.140625 5.55859375 C-11.06101563 5.28208984 -11.06101563 5.28208984 -12 5 C-10.56705502 4.15885829 -9.12845595 3.32734313 -7.6875 2.5 C-6.88699219 2.0359375 -6.08648437 1.571875 -5.26171875 1.09375 C-3 0 -3 0 0 0 Z " fill="#245444" transform="translate(196,314)"/>
<path d="M0 0 C0.99 0 1.98 0 3 0 C3 3.96 3 7.92 3 12 C2.34 12 1.68 12 1 12 C0.67 8.04 0.34 4.08 0 0 Z " fill="#32B284" transform="translate(441,168)"/>
<path d="M0 0 C-0.66 1.32 -1.32 2.64 -2 4 C-4.97 4 -7.94 4 -11 4 C-7.61125486 1.74083657 -4.15175481 0 0 0 Z " fill="#023117" transform="translate(456,244)"/>
<path d="M0 0 C2.35981813 0.93578995 4.69631264 1.93347808 7 3 C7 3.99 7 4.98 7 6 C3.54074837 4.7508258 0.85306797 3.32472205 -2 1 C-1.34 0.67 -0.68 0.34 0 0 Z " fill="#07190F" transform="translate(263,536)"/>
<path d="M0 0 C0.33 0 0.66 0 1 0 C1.33 1.98 1.66 3.96 2 6 C2.33 6 2.66 6 3 6 C3 8.64 3 11.28 3 14 C0.65454672 11.65454672 0.04491112 10.04014162 -0.09765625 6.73828125 C-0.08605469 5.93777344 -0.07445312 5.13726562 -0.0625 4.3125 C-0.05347656 3.50425781 -0.04445312 2.69601562 -0.03515625 1.86328125 C-0.02355469 1.24839844 -0.01195312 0.63351562 0 0 Z " fill="#4BA587" transform="translate(239,456)"/>
<path d="M0 0 C1.98 0 3.96 0 6 0 C5.67 1.65 5.34 3.3 5 5 C3.68 5 2.36 5 1 5 C0.67 3.35 0.34 1.7 0 0 Z " fill="#2CA87C" transform="translate(521,311)"/>
<path d="M0 0 C1.95216435 3.90432869 2.50639991 6.72213252 3 11 C2.01 11 1.02 11 0 11 C0 7.37 0 3.74 0 0 Z " fill="#24B582" transform="translate(296,245)"/>
<path d="M0 0 C0.33 0 0.66 0 1 0 C1.25 2.25 1.25 2.25 1 5 C-1 7.3125 -1 7.3125 -3 9 C-3.66 8.67 -4.32 8.34 -5 8 C-4.19185349 6.66402348 -3.37836819 5.331275 -2.5625 4 C-2.11003906 3.2575 -1.65757812 2.515 -1.19140625 1.75 C-0.79824219 1.1725 -0.40507812 0.595 0 0 Z " fill="#012311" transform="translate(163,323)"/>
<path d="M0 0 C2.64752004 2.57784846 4.94432065 4.91648098 7 8 C3.08597051 6.73058503 1.20927127 5.48832306 -1 2 C-0.67 1.34 -0.34 0.68 0 0 Z " fill="#25AE7D" transform="translate(542,294)"/>
<path d="M0 0 C0.33 1.32 0.66 2.64 1 4 C0.34 4 -0.32 4 -1 4 C-1 5.32 -1 6.64 -1 8 C-2.98 8.99 -2.98 8.99 -5 10 C-3.84414715 6.08788267 -2.64465038 3.1254959 0 0 Z " fill="#013012" transform="translate(73,290)"/>
<path d="M0 0 C0 3 0 3 -1.125 4.6875 C-3.76459098 6.53521368 -5.85804073 6.20946395 -9 6 C-6.11964908 3.75972706 -3.15133488 1.83827868 0 0 Z " fill="#01230C" transform="translate(305,282)"/>
<path d="M0 0 C-1.32 0.33 -2.64 0.66 -4 1 C-4 1.66 -4 2.32 -4 3 C-6.31 2.67 -8.62 2.34 -11 2 C-11 1.67 -11 1.34 -11 1 C-3.375 -1.125 -3.375 -1.125 0 0 Z " fill="#3D9B7B" transform="translate(124,435)"/>
<path d="M0 0 C0.33 0 0.66 0 1 0 C1 2.64 1 5.28 1 8 C0.34 8 -0.32 8 -1 8 C-1 8.66 -1 9.32 -1 10 C-1.66 10 -2.32 10 -3 10 C-2.01 6.7 -1.02 3.4 0 0 Z " fill="#429C7C" transform="translate(483,396)"/>
<path d="M0 0 C-1.90401138 1.90401138 -3.33425686 2.93520439 -6.046875 3.19921875 C-8.03233273 3.1886578 -10.0169914 3.09915043 -12 3 C-7.86112344 0.24074896 -4.92824278 -0.13689563 0 0 Z " fill="#56957D" transform="translate(342,385)"/>
<path d="M0 0 C1.98 0.99 1.98 0.99 4 2 C3.67 5.3 3.34 8.6 3 12 C2.67 12 2.34 12 2 12 C1.34 8.04 0.68 4.08 0 0 Z " fill="#125943" transform="translate(280,334)"/>
<path d="M0 0 C0.66 0.33 1.32 0.66 2 1 C-2.95 3.97 -2.95 3.97 -8 7 C-8.33 6.01 -8.66 5.02 -9 4 C-8.38125 3.87625 -7.7625 3.7525 -7.125 3.625 C-4.80879168 3.12802644 -4.80879168 3.12802644 -3 1 C-2.01 0.67 -1.02 0.34 0 0 Z " fill="#2FB485" transform="translate(186,304)"/>
<path d="M0 0 C0.33 0.66 0.66 1.32 1 2 C0.67 2.66 0.34 3.32 0 4 C-2.64 4 -5.28 4 -8 4 C-8 3.34 -8 2.68 -8 2 C-5.36 1.34 -2.72 0.68 0 0 Z " fill="#032D15" transform="translate(368,100)"/>
<path d="M0 0 C0.33 0 0.66 0 1 0 C1 1.98 1 3.96 1 6 C1.66 6 2.32 6 3 6 C3 7.98 3 9.96 3 12 C0.89366282 10.29171079 0.06198392 9.47851584 -0.29296875 6.73828125 C-0.25816406 5.93777344 -0.22335937 5.13726562 -0.1875 4.3125 C-0.16042969 3.50425781 -0.13335937 2.69601563 -0.10546875 1.86328125 C-0.07066406 1.24839844 -0.03585937 0.63351563 0 0 Z " fill="#3FB287" transform="translate(355,88)"/>
<path d="M0 0 C2.96052484 3.36423277 3.92289822 6.69159287 5 11 C1.87729874 8.48169253 1.05476902 7.2738451 0.25 3.25 C0.1675 2.1775 0.085 1.105 0 0 Z " fill="#0D2018" transform="translate(427,240)"/>
<path d="M0 0 C0.33 0.66 0.66 1.32 1 2 C0.67 2.99 0.34 3.98 0 5 C-0.66 5 -1.32 5 -2 5 C-2 6.32 -2 7.64 -2 9 C-2.99 9 -3.98 9 -5 9 C-3.7508258 5.54074837 -2.32472205 2.85306797 0 0 Z " fill="#255243" transform="translate(174,327)"/>
<path d="M0 0 C2.4375 0.375 2.4375 0.375 5 1 C5.33 1.66 5.66 2.32 6 3 C5.34 3 4.68 3 4 3 C3.67 4.32 3.34 5.64 3 7 C0 2.25 0 2.25 0 0 Z " fill="#275F49" transform="translate(384,108)"/>
<path d="M0 0 C0.59296875 0.21527344 1.1859375 0.43054688 1.796875 0.65234375 C0.51163239 1.51614634 -0.78154919 2.36814744 -2.078125 3.21484375 C-2.79742187 3.69050781 -3.51671875 4.16617188 -4.2578125 4.65625 C-4.89976562 4.98496094 -5.54171875 5.31367187 -6.203125 5.65234375 C-6.863125 5.32234375 -7.523125 4.99234375 -8.203125 4.65234375 C-2.74543269 -0.43323317 -2.74543269 -0.43323317 0 0 Z " fill="#032B12" transform="translate(352.203125,89.34765625)"/>
<path d="M0 0 C0.66 0.33 1.32 0.66 2 1 C1.67 1.99 1.34 2.98 1 4 C0.34 4 -0.32 4 -1 4 C-1 4.66 -1 5.32 -1 6 C-2.32 5.67 -3.64 5.34 -5 5 C-3.35 3.35 -1.7 1.7 0 0 Z " fill="#4EA182" transform="translate(475,412)"/>
<path d="M0 0 C0.33 0.99 0.66 1.98 1 3 C-3.1077065 4.58706842 -4.59232396 5.10191901 -9 4 C-6.03 2.68 -3.06 1.36 0 0 Z " fill="#41A985" transform="translate(137,349)"/>
<path d="M0 0 C0.66 0.66 1.32 1.32 2 2 C-0.97 4.475 -0.97 4.475 -4 7 C-4 4 -4 4 -2 1.8125 C-1.34 1.214375 -0.68 0.61625 0 0 Z " fill="#0D1412" transform="translate(447,283)"/>
<path d="M0 0 C0.66 0 1.32 0 2 0 C2 1.32 2 2.64 2 4 C0.68 4 -0.64 4 -2 4 C-2 4.66 -2 5.32 -2 6 C-2.66 5.67 -3.32 5.34 -4 5 C-2.71937515 3.2925002 -1.38232443 1.62626404 0 0 Z " fill="#022B11" transform="translate(78,284)"/>
</svg>
